<svg width="400" height="400" viewBox="0 0 400 400" xmlns="http://www.w3.org/2000/svg">
    <path d="M100 125C100 111.193 111.193 100 125 100H175C188.807 100 200 111.193 200 125V175C200 188.807 211.193 200 225 200L275 200C288.807 200 300 211.193 300 225V275C300 288.807 311.193 300 325 300L375 300C388.807 300 400 311.193 400 325V375C400 388.807 388.807 400 375 400H324C310.193 400 299 388.807 299 375V325C299 311.193 287.807 300 274 300H126C112.193 300 101 311.193 101 325V375C101 388.807 89.8071 400 76 400H25C11.1929 400 0 388.807 0 375V325C0 311.193 11.1929 300 25 300L75 300C88.8071 300 100 288.807 100 275V200V125Z"/>
    <path d="M300 0L313.505 36.4955L350 50L313.505 63.5045L300 100L286.495 63.5045L250 50L286.495 36.4955L300 0Z" />
</svg>