<svg width="500" height="400" viewBox="0 0 500 400" xmlns="http://www.w3.org/2000/svg">
    <path d="M500 25C500 11.1929 488.807 0 475 0H225C211.193 0 200 11.1929 200 25V75C200 88.8071 211.193 100 225 100H275C288.807 100 300 111.193 300 125V175C300 188.807 288.807 200 275 200H25C11.1929 200 0 211.193 0 225V300V375C0 388.807 11.1929 400 25 400H75C88.8071 400 100 388.807 100 375V325C100 311.193 111.193 300 125 300H175C188.807 300 200 311.193 200 325V375C200 388.807 211.193 400 225 400H275C288.807 400 300 388.807 300 375V325C300 311.193 311.193 300 325 300H374C387.807 300 399 311.193 399 325V375C399 388.807 410.193 400 424 400H475C488.807 400 500 388.807 500 375V325C500 311.193 488.807 300 475 300H425C411.193 300 400 288.807 400 275V200V125C400 111.193 411.193 100 425 100H475C488.807 100 500 88.8071 500 75V25Z"/>
</svg>