<?xml version="1.0" encoding="UTF-8" standalone="no"?>
<!-- Generator: Gravit.io -->
<svg xmlns="http://www.w3.org/2000/svg" xmlns:xlink="http://www.w3.org/1999/xlink" style="isolation:isolate" viewBox="0 0 2048 2048" width="2048pt" height="2048pt"><g><g><path d=" M 0 1023.999 C 0 458.839 458.839 0 1024.001 0 C 1589.162 0 2048 458.839 2048 1023.999 C 2048 1589.161 1589.162 2048 1024.001 2048 C 458.839 2048 0 1589.161 0 1023.999 Z " fill="rgb(27,151,243)"/><g><path d=" M 2020.065 785.718 L 2003.323 779.491 L 1922.878 779.491 L 1863.501 731.612 L 1739.02 823.541 L 1635.6 731.612 L 1459.404 764.172 L 1346.4 777.577 L 1327.246 990.16 L 1373.21 1193.172 L 1560.91 1193.172 L 1665.288 1177.853 L 1710.295 1260.205 L 1758.182 1355.962 L 1673.909 1426.824 L 1744.769 1587.7 L 1733.271 1650.897 L 1795.779 1696.953 C 1952.834 1517.001 2048 1281.618 2048 1023.999 C 2048 941.951 2038.289 862.181 2020.065 785.718 Z " fill="rgb(111,193,255)"/><path d=" M 135.353 928.242 L 201.746 943.562 L 268.139 986.972 L 357.521 1015.063 L 403.485 1026.554 L 446.895 1045.701 L 423.912 1091.667 L 352.412 1206.585 L 431.576 1301.061 L 543.933 1372.562 L 543.933 1436.407 L 617.988 1548.764 C 617.988 1548.764 610.326 1620.266 617.988 1643.248 C 625.645 1666.237 669.063 1786.251 669.063 1786.251 L 712.473 1842.426 L 817.173 1855.191 L 750.774 1747.943 C 750.774 1747.943 847.812 1599.831 855.475 1594.729 C 863.131 1589.621 824.83 1530.892 832.492 1523.228 C 840.148 1515.565 901.44 1449.18 901.44 1449.18 L 967.839 1364.899 L 995.923 1255.096 L 911.658 1122.304 C 911.658 1122.304 817.173 1055.911 817.173 1048.255 C 817.173 1040.6 755.889 974.2 755.889 974.2 L 584.796 969.091 L 487.758 938.453 L 452.004 1002.291 L 370.292 961.428 L 372.847 893.959 L 316.672 893.959 L 309.008 893.959 L 273.254 838.86 L 326.882 797.997 L 436.685 854.18 L 505.632 810.77 L 579.687 637.122 L 646.087 552.849 L 766.101 552.849 L 783.981 511.992 L 863.145 473.691 L 896.345 495.716 L 932.099 443.046 L 863.152 346.007 L 809.525 328.127 L 789.751 346.697 L 725.252 407.284 L 574.586 371.53 L 554.158 443.032 L 487.758 358.766 L 574.578 328.12 L 671.616 353.657 L 709.918 315.355 L 832.492 297.475 L 732.9 192.78 L 617.988 192.78 L 572.025 266.836 L 526.059 208.1 L 414.948 200.775 C 199.72 360.278 49.271 602.177 10.155 879.858 L 91.951 893.945 L 135.353 928.242 Z " fill="rgb(111,193,255)"/><path d=" M 1640.709 389.425 L 1640.709 435.389 L 1505.369 473.691 L 1518.134 570.736 L 1441.524 523.815 L 1367.476 583.501 L 1415.993 655.002 L 1490.05 665.213 L 1615.172 565.627 L 1650.919 611.591 C 1650.919 611.591 1627.937 665.213 1650.919 683.093 C 1673.909 700.975 1770.467 729.058 1770.467 729.058 L 1770.467 642.238 L 1704.546 583.501 L 1747.964 547.754 L 1827.121 614.147 L 1801.584 660.11 L 1949.695 729.058 C 1949.695 729.058 1965.937 710.262 1989.588 682.496 C 1915.222 472.228 1774.155 293.506 1591.774 171.755 L 1548.779 333.25 L 1640.709 389.425 Z " fill="rgb(111,193,255)"/></g><path d=" M 234.7 1464.879 L 219.197 1449.384 L 176.3 1458.18 L 176.3 1500.401 L 131.279 1525.839 C 151.559 1561.839 173.95 1596.488 198.29 1629.625 L 230.836 1623.545 L 294.752 1577.805 L 298.271 1536.176 L 234.692 1505.678 L 234.692 1464.879 L 234.7 1464.879 Z " fill="rgb(111,193,255)"/></g><g><path d=" M 885.747 1526.085 C 944.159 1455.143 954.28 1398.162 919.907 1357.569 L 847.225 1356.966 C 810.724 1398.065 826.926 1455.613 881.83 1526.021 C 882.888 1527.396 884.644 1527.424 885.747 1526.085 Z " fill="rgb(255,205,51)"/><path d=" M 1165.748 1526.085 C 1224.16 1455.143 1234.282 1398.162 1199.909 1357.569 L 1127.227 1356.966 C 1090.726 1398.065 1106.927 1455.613 1161.831 1526.021 C 1162.89 1527.396 1164.645 1527.424 1165.748 1526.085 Z " fill="rgb(255,205,51)"/><path d=" M 1446.485 1526.085 C 1504.897 1455.143 1515.019 1398.162 1480.645 1357.569 L 1407.963 1356.966 C 1371.462 1398.065 1387.664 1455.613 1442.568 1526.021 C 1443.627 1527.396 1445.382 1527.424 1446.485 1526.085 Z " fill="rgb(255,205,51)"/><path d=" M 605.752 1526.085 C 664.164 1455.143 674.286 1398.162 639.913 1357.569 L 567.231 1356.966 C 530.73 1398.065 546.931 1455.613 601.836 1526.021 C 602.894 1527.396 604.649 1527.424 605.752 1526.085 Z " fill="rgb(255,205,51)"/><path d=" M 1200.218 1211.036 L 1127.044 1211.036 C 1116.615 1233.146 1084.769 1306.651 1084.769 1372.188 C 1084.769 1377.263 1088.855 1381.915 1093.888 1382.569 C 1130.332 1387.304 1196.959 1387.304 1233.364 1382.57 C 1238.396 1381.915 1242.482 1377.263 1242.482 1372.188 C 1242.479 1306.651 1210.69 1233.146 1200.218 1211.036 Z " fill="rgb(255,255,255)"/><path d=" M 1480.955 1211.036 L 1407.781 1211.036 C 1397.352 1233.146 1365.506 1306.651 1365.506 1372.188 C 1365.506 1377.263 1369.592 1381.915 1374.625 1382.569 C 1411.069 1387.304 1477.696 1387.304 1514.101 1382.57 C 1519.133 1381.915 1523.219 1377.263 1523.219 1372.188 C 1523.215 1306.651 1491.427 1233.146 1480.955 1211.036 Z " fill="rgb(255,255,255)"/><path d=" M 920.243 1211.036 L 847.03 1211.036 C 836.601 1233.146 804.791 1306.651 804.791 1372.188 C 804.791 1377.263 808.877 1381.915 813.909 1382.569 C 850.329 1387.304 916.949 1387.304 953.339 1382.57 C 958.372 1381.915 962.457 1377.263 962.457 1372.188 C 962.454 1306.651 930.669 1233.146 920.243 1211.036 Z " fill="rgb(255,255,255)"/><path d=" M 640.24 1211.036 L 567.031 1211.036 C 556.605 1233.146 524.781 1306.651 524.781 1372.188 C 524.781 1377.263 528.867 1381.915 533.899 1382.569 C 570.318 1387.304 636.938 1387.304 673.361 1382.569 C 678.394 1381.915 682.48 1377.263 682.48 1372.188 C 682.48 1306.651 650.669 1233.146 640.24 1211.036 Z " fill="rgb(255,255,255)"/><path d=" M 1593.121 1552.346 L 454.879 1552.346 C 441.081 1552.346 421.958 1560.267 412.202 1570.024 L 317.557 1664.668 C 307.8 1674.425 311.081 1682.346 324.879 1682.346 L 1723.121 1682.346 C 1736.918 1682.346 1740.199 1674.425 1730.443 1664.668 L 1635.798 1570.024 C 1626.042 1560.267 1606.918 1552.346 1593.121 1552.346 Z " fill="rgb(255,255,255)"/><path d=" M 681.734 659.971 L 682.181 1202.76 C 682.185 1207.835 678.068 1211.955 672.993 1211.955 L 535.613 1211.955 C 530.538 1211.955 526.417 1207.835 526.417 1202.76 L 526.417 659.971 L 378.052 659.971 C 364.35 659.971 353.225 649.073 353.225 635.648 L 353.225 635.648 C 353.225 622.224 364.35 611.326 378.052 611.326 L 1669.948 611.326 C 1683.65 611.326 1694.775 622.224 1694.775 635.648 L 1694.775 635.648 C 1694.775 649.073 1683.65 659.971 1669.948 659.971 L 1522.348 659.971 L 1522.827 1202.76 C 1522.831 1207.835 1518.715 1211.955 1513.64 1211.955 L 1376.255 1211.955 C 1371.18 1211.955 1367.06 1207.835 1367.06 1202.76 L 1367.06 659.971 L 1242.338 659.971 L 1242.809 1202.76 C 1242.814 1207.835 1238.697 1211.955 1233.622 1211.955 L 1095.633 1211.955 C 1090.558 1211.955 1086.438 1207.835 1086.438 1202.76 L 1086.438 659.971 L 962.356 659.971 L 962.803 1202.76 C 962.808 1207.835 958.691 1211.955 953.616 1211.955 L 815.605 1211.955 C 810.53 1211.955 806.41 1207.835 806.41 1202.76 L 806.41 659.971 L 681.734 659.971 Z " fill="rgb(255,255,255)"/><path d=" M 999.534 484.47 L 340.712 605.001 C 315.025 609.7 313.189 604.148 336.615 592.609 L 985.426 273.028 C 1008.189 261.816 1045.124 261.87 1067.854 273.149 L 1711.424 592.485 C 1734.816 604.092 1732.957 609.673 1707.276 604.94 L 1053.798 484.506 C 1038.826 481.746 1014.511 481.731 999.534 484.47 Z " fill="rgb(255,255,255)"/></g></g></svg>