<?xml version="1.0" encoding="UTF-8" standalone="no"?>
<!-- Generator: Gravit.io -->
<svg xmlns="http://www.w3.org/2000/svg" xmlns:xlink="http://www.w3.org/1999/xlink" style="isolation:isolate" viewBox="0 0 2048 2048" width="2048pt" height="2048pt"><g><clipPath id="_clipPath_9vOiJI5wQX5xxhG5wCZPAF8hgmUxTV9O"><path d=" M 0 1024 C 0 458.839 458.839 0 1024 0 C 1589.161 0 2048 458.839 2048 1024 C 2048 1589.161 1589.161 2048 1024 2048 C 458.839 2048 0 1589.161 0 1024 Z " fill="rgb(255,255,255)"/></clipPath><g clip-path="url(#_clipPath_9vOiJI5wQX5xxhG5wCZPAF8hgmUxTV9O)"><g><g><path d=" M 0 1023.999 C 0 458.839 458.839 0 1024.001 0 C 1589.162 0 2048 458.839 2048 1023.999 C 2048 1589.161 1589.162 2048 1024.001 2048 C 458.839 2048 0 1589.161 0 1023.999 Z " fill="rgb(27,151,243)"/><g><path d=" M 2020.065 785.718 L 2003.323 779.491 L 1922.878 779.491 L 1863.501 731.612 L 1739.02 823.541 L 1635.6 731.612 L 1459.404 764.172 L 1346.4 777.577 L 1327.246 990.16 L 1373.21 1193.172 L 1560.91 1193.172 L 1665.288 1177.853 L 1710.295 1260.205 L 1758.182 1355.962 L 1673.909 1426.824 L 1744.769 1587.7 L 1733.271 1650.897 L 1795.779 1696.953 C 1952.834 1517.001 2048 1281.618 2048 1023.999 C 2048 941.951 2038.289 862.181 2020.065 785.718 Z " fill="rgb(111,193,255)"/><path d=" M 135.353 928.242 L 201.746 943.562 L 268.139 986.972 L 357.521 1015.063 L 403.485 1026.554 L 446.895 1045.701 L 423.912 1091.667 L 352.412 1206.585 L 431.576 1301.061 L 543.933 1372.562 L 543.933 1436.407 L 617.988 1548.764 C 617.988 1548.764 610.326 1620.266 617.988 1643.248 C 625.645 1666.237 669.063 1786.251 669.063 1786.251 L 712.473 1842.426 L 817.173 1855.191 L 783.981 1747.943 C 783.981 1747.943 870.337 1580.101 878 1575 C 885.656 1569.891 847.812 1527.664 855.475 1520 C 863.131 1512.337 901.44 1449.18 901.44 1449.18 L 967.839 1364.899 L 995.923 1255.096 L 911.658 1122.304 C 911.658 1122.304 817.173 1055.911 817.173 1048.255 C 817.173 1040.6 755.889 974.2 755.889 974.2 L 584.796 969.091 L 487.758 938.453 L 452.004 1002.291 L 370.292 961.428 L 372.847 893.959 L 316.672 893.959 L 309.008 893.959 L 273.254 838.86 L 326.882 797.997 L 436.685 854.18 L 505.632 810.77 L 579.687 637.122 L 646.087 552.849 L 766.101 552.849 L 783.981 511.992 L 863.145 473.691 L 896.345 495.716 L 932.099 443.046 L 863.152 346.007 L 809.525 328.127 L 789.751 346.697 L 725.252 407.284 L 574.586 371.53 L 554.158 443.032 L 487.758 358.766 L 574.578 328.12 L 671.616 353.657 L 709.918 315.355 L 832.492 297.475 L 732.9 192.78 L 617.988 192.78 L 572.025 266.836 L 526.059 208.1 L 414.948 200.775 C 199.72 360.278 49.271 602.177 10.155 879.858 L 91.951 893.945 L 135.353 928.242 Z " fill="rgb(111,193,255)"/><path d=" M 1640.709 389.425 L 1640.709 435.389 L 1505.369 473.691 L 1518.134 570.736 L 1441.524 523.815 L 1367.476 583.501 L 1415.993 655.002 L 1490.05 665.213 L 1615.172 565.627 L 1650.919 611.591 C 1650.919 611.591 1627.937 665.213 1650.919 683.093 C 1673.909 700.975 1770.467 729.058 1770.467 729.058 L 1770.467 642.238 L 1704.546 583.501 L 1747.964 547.754 L 1827.121 614.147 L 1801.584 660.11 L 1949.695 729.058 C 1949.695 729.058 1965.937 710.262 1989.588 682.496 C 1915.222 472.228 1774.155 293.506 1591.774 171.755 L 1548.779 333.25 L 1640.709 389.425 Z " fill="rgb(111,193,255)"/></g><path d=" M 234.7 1464.879 L 219.197 1449.384 L 176.3 1458.18 L 176.3 1500.401 L 131.279 1525.839 C 151.559 1561.839 173.95 1596.488 198.29 1629.625 L 230.836 1623.545 L 294.752 1577.805 L 298.271 1536.176 L 234.692 1505.678 L 234.692 1464.879 L 234.7 1464.879 Z " fill="rgb(111,193,255)"/></g><path d=" M 756.04 1294.065 L 611.105 1305.105 C 388.771 1414.438 227.771 1380.438 13.105 1227.105 C 13.105 1501.672 77.117 1665.533 229.927 1818.896 L 229.925 1818.897 C 230.139 1819.111 230.353 1819.325 230.568 1819.537 C 384.115 1972.809 548.05 2037 823 2037 C 669.667 1822.333 635.667 1661.333 745 1439 L 756.04 1294.065 Z " fill="rgb(245,251,255)"/></g></g><g><path d=" M 793.866 1083.973 C 664.896 1012.71 484.799 1094.348 436.817 1212.854 C 433.328 1221.02 437.165 1224.909 445.378 1221.533 C 501.385 1198.513 574.991 1198.121 651.34 1226.5 C 683.375 1194.465 762.962 1114.878 793.866 1083.973 Z " fill="rgb(192,52,41)"/><path d=" M 964.16 1254.267 C 1035.424 1383.238 953.785 1563.334 835.28 1611.316 C 827.113 1614.805 823.225 1610.969 826.6 1602.756 C 849.621 1546.748 850.012 1473.142 821.633 1396.794 C 853.668 1364.759 933.255 1285.172 964.16 1254.267 Z " fill="rgb(192,52,41)"/><g><path d=" M 1537.088 678.977 L 1612.472 435.394 L 1368.202 510.092 C 1347.424 553.594 1356.82 601.21 1395.675 652.191 C 1447.71 700.631 1494.609 709.332 1537.088 678.977 Z " fill-rule="evenodd" fill="rgb(255,219,153)"/><line x1="1523.754" y1="643.759" x2="1539.589" y2="593.448"/><path d=" M 762.253 1285.613 L 879.096 1402.455 L 928.755 1352.796 L 1500.49 781.062 C 1504.392 777.159 1508.891 769.711 1510.529 764.441 L 1537.088 678.977 C 1490.926 682.637 1444.027 673.958 1395.675 652.191 L 762.253 1285.613 Z " fill-rule="evenodd" fill="rgb(253,165,51)"/><path d=" M 1575.713 554.009 C 1540.007 540.342 1503.935 503.17 1493.451 471.747 L 1612.437 435.359 L 1575.713 554.009 Z " fill-rule="evenodd" fill="rgb(0,0,0)"/><path d=" M 1395.675 652.191 C 1372.273 601.925 1362.877 554.332 1368.202 510.092 L 1282.738 536.651 C 1277.468 538.289 1270.02 542.787 1266.118 546.689 L 694.383 1118.424 L 644.724 1168.083 L 762.253 1285.613 L 1395.675 652.191 Z " fill-rule="evenodd" fill="rgb(255,191,71)"/></g><path d=" M 540.667 1514.735 C 697.897 1499.504 780.192 1441.815 787.753 1350.694 L 699.408 1262.349 C 605.086 1267.937 554.829 1357.58 535.984 1509.897 C 535.6 1512.854 537.699 1515.022 540.667 1514.735 Z " fill="rgb(255,196,69)"/><path d=" M 797.08 1250.775 L 929.051 1352.5 L 850.185 1431.309 C 844.329 1437.16 834.181 1437.901 827.538 1432.961 L 705.582 1342.273 L 614.36 1219.502 C 609.422 1212.856 610.166 1202.709 616.02 1196.855 L 694.713 1118.162 L 797.08 1250.775 Z " fill="rgb(151,151,151)"/><path d=" M 915.414 1130.88 C 916.117 1130.697 916.818 1130.514 917.516 1130.339 C 891.192 1230.715 722.075 1392.359 633.681 1413.343 C 633.816 1412.675 633.961 1412 634.108 1411.325 L 634.108 1411.325 C 653.144 1327.449 815.337 1157.762 915.414 1130.88 Z " fill="rgb(192,52,41)"/></g></g></svg>