<?xml version="1.0" encoding="UTF-8" standalone="no"?>
<svg
   xmlns:dc="http://purl.org/dc/elements/1.1/"
   xmlns:cc="http://creativecommons.org/ns#"
   xmlns:rdf="http://www.w3.org/1999/02/22-rdf-syntax-ns#"
   xmlns:svg="http://www.w3.org/2000/svg"
   xmlns="http://www.w3.org/2000/svg"
   viewBox="0 0 173 147"
   version="1.1"
   id="svg8">
  <defs
     id="defs2" />
  <metadata
     id="metadata5">
    <rdf:RDF>
      <cc:Work
         rdf:about="">
        <dc:format>image/svg+xml</dc:format>
        <dc:type
           rdf:resource="http://purl.org/dc/dcmitype/StillImage" />
        <dc:title></dc:title>
      </cc:Work>
    </rdf:RDF>
  </metadata>
  <g
     id="layer1">
    <path
       d="m 38.615551,146.94512 c -5.552601,-0.80121 -9.60207,-2.64123 -13.223453,-6.00852 -2.37846,-2.21158 -3.973238,-4.39861 -5.335603,-7.31709 -1.635479,-3.50354 -1.96502,-5.07706 -1.979213,-9.45055 -0.01049,-3.2326 0.08151,-4.14887 0.595657,-5.93237 1.362445,-4.72613 4.120025,-8.94228 7.749205,-11.84804 2.958489,-2.36877 5.271727,-3.51818 9.624531,-4.78227 0.258078,-0.0749 0.329343,-3.091033 0.329343,-13.938638 V 73.82464 L 19.532779,73.751197 C 2.9131023,73.67875 2.6796687,73.670479 1.9458559,73.126222 1.5368293,72.822863 0.93168303,72.176892 0.60108634,71.690732 L 0,70.806803 0.07413799,59.961209 0.14827598,49.115615 0.86829779,48.171258 C 2.3344346,46.248322 -0.47668687,46.367755 41.42348,46.448363 l 37.586565,0.07235 1.012449,0.809728 c 1.96036,1.567847 1.933742,1.393497 1.93421,12.670722 5.28e-4,10.933984 -0.0248,11.145554 -1.492987,12.53933 -0.410383,0.389568 -1.079905,0.834492 -1.487848,0.988733 -0.49493,0.187136 -6.170977,0.280439 -17.059975,0.280439 H 45.597625 v 4.482236 4.482246 h 14.999989 14.99999 l 7.918268,-7.975759 7.918266,-7.97575 0.004,-5.481481 c 0.004,-4.897394 0.05826,-5.585708 0.512683,-6.459701 0.279762,-0.538019 2.876116,-3.338017 5.769668,-6.222212 L 102.9815,43.415249 102.12707,42.19954 C 95.739576,33.111222 94.847092,20.050813 99.919856,9.8994892 102.06338,5.6099983 105.6032,1.1100931 107.43978,0.33999146 c 1.13857,-0.47741652 2.8118,-0.44885439 3.84193,0.0655807 0.46376,0.23159712 4.60584,4.17417184 9.20462,8.76128104 l 8.3614,8.3401928 4.81231,-4.782584 c 4.13987,-4.1142821 4.97655,-4.8262574 5.98756,-5.0951292 1.33651,-0.355442 2.7697,-0.055516 4.03436,0.8442836 1.59878,1.1375242 2.26285,4.0015376 1.35123,5.8275876 -0.23169,0.464094 -2.45207,2.88905 -4.93416,5.388791 l -4.5129,4.544986 8.46523,8.506254 c 7.08283,7.117142 8.51225,8.678482 8.75307,9.560897 0.64636,2.368298 0.0766,3.828223 -2.27257,5.822529 -6.63306,5.631218 -13.61549,8.283354 -21.80805,8.283354 -6.53236,0 -12.41422,-1.763733 -17.52566,-5.255243 l -1.49895,-1.02391 -4.38598,4.394792 -4.38597,4.394792 v 3.953714 3.953714 l 7.97169,7.974135 7.9717,7.974135 h 17.59842 c 19.0691,0 18.28846,-0.05551 19.90183,1.415062 1.19155,1.086082 1.22197,1.29816 1.35905,9.475513 l 0.13174,7.858481 1.97606,0.66499 c 6.73797,2.26746 12.0934,7.64916 14.21014,14.27983 1.61693,5.06502 1.13818,12.12004 -1.16028,17.09827 -5.18469,11.22954 -18.25364,16.38477 -29.49849,11.63608 -4.02435,-1.69948 -7.8724,-4.87567 -10.24995,-8.46033 -4.82723,-7.27808 -5.06565,-17.29259 -0.57879,-24.31164 0.51146,-0.8001 0.92992,-1.51175 0.92992,-1.58144 0,-0.0697 -3.9704,-0.12672 -8.82312,-0.12672 h -8.82313 l 0.90766,1.41992 c 2.12864,3.32995 3.56928,8.28892 3.5614,12.2591 -0.008,3.85559 -1.48378,8.59369 -3.76926,12.09852 -1.63047,2.50037 -3.05354,4.02372 -5.43967,5.82299 -6.91651,5.21545 -15.633655,6.11407 -23.402261,2.41247 -5.760557,-2.7448 -9.939013,-7.54107 -12.059771,-13.8429 -0.601486,-1.78732 -0.729166,-2.69286 -0.836455,-5.93239 -0.107814,-3.25543 -0.0453,-4.16403 0.421042,-6.11938 0.614937,-2.57838 1.690461,-5.12327 2.92257,-6.91535 l 0.827082,-1.20298 h -8.811524 -8.811517 l 1.506044,2.97141 c 1.925108,3.79821 2.440616,5.78505 2.581125,9.948 0.0972,2.87993 0.02874,3.61583 -0.542597,5.83248 -2.204494,8.55283 -8.975285,15.19359 -17.300316,16.96806 -1.890576,0.40297 -5.748834,0.6809 -6.982074,0.50294 z m 116.413199,-9.63391 c 4.60832,-1.52135 8.32357,-5.63658 9.16478,-10.15144 0.58111,-3.11881 -0.26612,-7.36598 -1.99037,-9.97784 -3.85793,-5.84391 -10.9011,-7.80428 -17.27564,-4.80843 -2.25352,1.05908 -5.13981,3.9264 -6.16731,6.12674 -2.81845,6.03566 -1.13426,12.9252 4.12722,16.88324 3.3567,2.52514 8.06655,3.27295 12.14132,1.92773 z M 44.37396,137.198 c 9.756056,-2.51718 13.494672,-14.57895 6.822799,-22.01217 -2.64931,-2.95162 -6.056336,-4.4636 -10.058131,-4.4636 -3.783576,0 -6.794111,1.20459 -9.457391,3.78412 -5.305942,5.13909 -5.337404,13.90321 -0.06884,19.17551 3.300566,3.30291 8.275439,4.67361 12.761561,3.51614 z m 55.066175,0 c 9.944705,-2.56585 13.540675,-14.73631 6.577825,-22.26237 -2.59648,-2.80648 -5.88663,-4.2134 -9.8533,-4.2134 -2.80622,0 -5.050137,0.63742 -7.244482,2.05792 -5.961162,3.85889 -7.858089,11.24162 -4.565526,17.76876 1.524474,3.02211 4.929534,5.70677 8.434504,6.65006 1.897693,0.51071 4.669379,0.51031 6.650979,-0.001 z M 146.50836,96.748186 V 92.26594 H 96.053 45.597625 v 4.482246 4.482234 H 96.053 146.50836 Z M 102.7716,82.704558 c 0,-0.03827 -1.57258,-1.640045 -3.494638,-3.559493 l -3.494633,-3.489916 -3.549651,3.559492 -3.549642,3.559493 h 7.044274 c 3.874358,0 7.04429,-0.03129 7.04429,-0.06956 z M 72.998973,59.835599 V 55.353353 H 40.986822 8.9746703 v 4.482246 4.482245 H 40.986822 72.998973 Z M 133.72985,46.408343 c 1.15929,-0.302293 3.22769,-1.089002 4.59644,-1.748237 l 2.48863,-1.198618 -15.66154,-15.674289 c -8.61383,-8.620863 -15.75851,-15.674302 -15.87705,-15.674302 -0.41639,0 -2.33246,4.532887 -2.98622,7.06459 -0.59051,2.286753 -0.64802,2.937787 -0.54052,6.118474 0.0914,2.705918 0.26152,4.001995 0.7092,5.405059 2.30877,7.235946 8.07434,13.221774 14.85093,15.418263 3.57603,1.159097 8.63227,1.276776 12.42013,0.28906 z"
       id="path865" />
  </g>
</svg>
